<mxfile host="65bd71144e">
    <diagram id="BzJRGiiYguJwzR-MFmOL" name="Page-1">
        <mxGraphModel dx="1100" dy="580" grid="1" gridSize="10" guides="1" tooltips="1" connect="1" arrows="1" fold="1" page="1" pageScale="1" pageWidth="827" pageHeight="1169" math="0" shadow="0">
            <root>
                <mxCell id="0"/>
                <mxCell id="1" parent="0"/>
                <mxCell id="15" style="edgeStyle=none;html=1;entryX=1;entryY=0.5;entryDx=0;entryDy=0;" parent="1" source="7" target="2" edge="1">
                    <mxGeometry relative="1" as="geometry"/>
                </mxCell>
                <mxCell id="16" value="Attached" style="edgeLabel;html=1;align=center;verticalAlign=middle;resizable=0;points=[];" parent="15" vertex="1" connectable="0">
                    <mxGeometry x="-0.0615" y="-3" relative="1" as="geometry">
                        <mxPoint as="offset"/>
                    </mxGeometry>
                </mxCell>
                <mxCell id="7" value="Volume" style="shape=cylinder3;whiteSpace=wrap;html=1;boundedLbl=1;backgroundOutline=1;size=15;" parent="1" vertex="1">
                    <mxGeometry x="540" y="310" width="60" height="80" as="geometry"/>
                </mxCell>
                <mxCell id="18" value="" style="group" parent="1" vertex="1" connectable="0">
                    <mxGeometry x="650" y="250" width="200" height="200" as="geometry"/>
                </mxCell>
                <mxCell id="19" value="" style="rounded=0;whiteSpace=wrap;html=1;" parent="18" vertex="1">
                    <mxGeometry width="200" height="200" as="geometry"/>
                </mxCell>
                <mxCell id="20" value="Pod3" style="rounded=1;whiteSpace=wrap;html=1;" parent="18" vertex="1">
                    <mxGeometry x="40" y="30" width="120" height="60" as="geometry"/>
                </mxCell>
                <mxCell id="21" value="Pod4" style="rounded=1;whiteSpace=wrap;html=1;" parent="18" vertex="1">
                    <mxGeometry x="40" y="130" width="120" height="60" as="geometry"/>
                </mxCell>
                <mxCell id="LsQGmLb3f349_SgnXoTz-24" value="" style="group" parent="1" vertex="1" connectable="0">
                    <mxGeometry x="210" y="250" width="200" height="240" as="geometry"/>
                </mxCell>
                <mxCell id="17" value="" style="group" parent="LsQGmLb3f349_SgnXoTz-24" vertex="1" connectable="0">
                    <mxGeometry width="200" height="200" as="geometry"/>
                </mxCell>
                <mxCell id="2" value="" style="rounded=0;whiteSpace=wrap;html=1;" parent="17" vertex="1">
                    <mxGeometry width="200" height="200" as="geometry"/>
                </mxCell>
                <mxCell id="3" value="Pod2" style="rounded=1;whiteSpace=wrap;html=1;" parent="17" vertex="1">
                    <mxGeometry x="40" y="30" width="120" height="60" as="geometry"/>
                </mxCell>
                <mxCell id="4" value="Pod1" style="rounded=1;whiteSpace=wrap;html=1;" parent="17" vertex="1">
                    <mxGeometry x="40" y="130" width="120" height="60" as="geometry"/>
                </mxCell>
                <mxCell id="LsQGmLb3f349_SgnXoTz-23" value="Worker1" style="text;html=1;strokeColor=none;fillColor=none;align=center;verticalAlign=middle;whiteSpace=wrap;rounded=0;" parent="LsQGmLb3f349_SgnXoTz-24" vertex="1">
                    <mxGeometry x="70" y="210" width="60" height="30" as="geometry"/>
                </mxCell>
                <mxCell id="22" style="edgeStyle=none;html=1;exitX=1;exitY=0.5;exitDx=0;exitDy=0;entryX=0;entryY=1;entryDx=0;entryDy=-15;entryPerimeter=0;" parent="1" source="4" target="7" edge="1">
                    <mxGeometry relative="1" as="geometry"/>
                </mxCell>
                <mxCell id="23" value="Uses" style="edgeLabel;html=1;align=center;verticalAlign=middle;resizable=0;points=[];" parent="22" vertex="1" connectable="0">
                    <mxGeometry x="0.2156" y="-3" relative="1" as="geometry">
                        <mxPoint x="1" as="offset"/>
                    </mxGeometry>
                </mxCell>
                <mxCell id="LsQGmLb3f349_SgnXoTz-25" value="Worker 2" style="text;html=1;strokeColor=none;fillColor=none;align=center;verticalAlign=middle;whiteSpace=wrap;rounded=0;" parent="1" vertex="1">
                    <mxGeometry x="720" y="460" width="60" height="30" as="geometry"/>
                </mxCell>
                <mxCell id="NEYz2J8ikHk80SDi5Uhd-25" style="edgeStyle=none;html=1;entryX=0.5;entryY=1;entryDx=0;entryDy=0;entryPerimeter=0;" parent="1" source="NEYz2J8ikHk80SDi5Uhd-24" target="7" edge="1">
                    <mxGeometry relative="1" as="geometry">
                        <mxPoint x="570" y="420" as="targetPoint"/>
                    </mxGeometry>
                </mxCell>
                <mxCell id="NEYz2J8ikHk80SDi5Uhd-26" value="Volume Created&lt;br&gt;Using APIs provided by&lt;br&gt;Cloud Vendor" style="edgeLabel;html=1;align=center;verticalAlign=middle;resizable=0;points=[];" parent="NEYz2J8ikHk80SDi5Uhd-25" vertex="1" connectable="0">
                    <mxGeometry x="0.2667" relative="1" as="geometry">
                        <mxPoint as="offset"/>
                    </mxGeometry>
                </mxCell>
                <mxCell id="NEYz2J8ikHk80SDi5Uhd-24" value="Cloud Vendor" style="rounded=1;whiteSpace=wrap;html=1;" parent="1" vertex="1">
                    <mxGeometry x="510" y="540" width="120" height="60" as="geometry"/>
                </mxCell>
            </root>
        </mxGraphModel>
    </diagram>
    <diagram id="TrIBPlN3bLWXuWKkehuz" name="Page-2">
        <mxGraphModel dx="1100" dy="580" grid="1" gridSize="10" guides="1" tooltips="1" connect="1" arrows="1" fold="1" page="1" pageScale="1" pageWidth="827" pageHeight="1169" math="0" shadow="0">
            <root>
                <mxCell id="0"/>
                <mxCell id="1" parent="0"/>
                <mxCell id="4s9ar1ghVEzyRIvkXxQm-1" style="edgeStyle=none;html=1;entryX=0;entryY=0.29;entryDx=0;entryDy=0;entryPerimeter=0;" parent="1" source="4s9ar1ghVEzyRIvkXxQm-3" target="4s9ar1ghVEzyRIvkXxQm-5" edge="1">
                    <mxGeometry relative="1" as="geometry"/>
                </mxCell>
                <mxCell id="4s9ar1ghVEzyRIvkXxQm-2" value="Attached" style="edgeLabel;html=1;align=center;verticalAlign=middle;resizable=0;points=[];" parent="4s9ar1ghVEzyRIvkXxQm-1" vertex="1" connectable="0">
                    <mxGeometry x="-0.0615" y="-3" relative="1" as="geometry">
                        <mxPoint as="offset"/>
                    </mxGeometry>
                </mxCell>
                <mxCell id="4s9ar1ghVEzyRIvkXxQm-3" value="Volume" style="shape=cylinder3;whiteSpace=wrap;html=1;boundedLbl=1;backgroundOutline=1;size=15;" parent="1" vertex="1">
                    <mxGeometry x="480" y="300" width="60" height="80" as="geometry"/>
                </mxCell>
                <mxCell id="4s9ar1ghVEzyRIvkXxQm-4" value="" style="group" parent="1" vertex="1" connectable="0">
                    <mxGeometry x="650" y="250" width="200" height="310" as="geometry"/>
                </mxCell>
                <mxCell id="4s9ar1ghVEzyRIvkXxQm-5" value="" style="rounded=0;whiteSpace=wrap;html=1;" parent="4s9ar1ghVEzyRIvkXxQm-4" vertex="1">
                    <mxGeometry width="200" height="310" as="geometry"/>
                </mxCell>
                <mxCell id="4s9ar1ghVEzyRIvkXxQm-6" value="Pod3" style="rounded=1;whiteSpace=wrap;html=1;" parent="4s9ar1ghVEzyRIvkXxQm-4" vertex="1">
                    <mxGeometry x="40" y="30" width="120" height="63.5" as="geometry"/>
                </mxCell>
                <mxCell id="4s9ar1ghVEzyRIvkXxQm-7" value="Pod4" style="rounded=1;whiteSpace=wrap;html=1;" parent="4s9ar1ghVEzyRIvkXxQm-4" vertex="1">
                    <mxGeometry x="40" y="120" width="120" height="58.5" as="geometry"/>
                </mxCell>
                <mxCell id="4s9ar1ghVEzyRIvkXxQm-14" value="Pod1" style="rounded=1;whiteSpace=wrap;html=1;" parent="4s9ar1ghVEzyRIvkXxQm-4" vertex="1">
                    <mxGeometry x="40" y="220" width="120" height="60" as="geometry"/>
                </mxCell>
                <mxCell id="4s9ar1ghVEzyRIvkXxQm-10" value="" style="group" parent="1" vertex="1" connectable="0">
                    <mxGeometry x="210" y="250" width="200" height="240" as="geometry"/>
                </mxCell>
                <mxCell id="4s9ar1ghVEzyRIvkXxQm-11" value="" style="group" parent="4s9ar1ghVEzyRIvkXxQm-10" vertex="1" connectable="0">
                    <mxGeometry width="200" height="200" as="geometry"/>
                </mxCell>
                <mxCell id="4s9ar1ghVEzyRIvkXxQm-12" value="" style="rounded=0;whiteSpace=wrap;html=1;" parent="4s9ar1ghVEzyRIvkXxQm-11" vertex="1">
                    <mxGeometry width="200" height="200" as="geometry"/>
                </mxCell>
                <mxCell id="4s9ar1ghVEzyRIvkXxQm-13" value="Pod2" style="rounded=1;whiteSpace=wrap;html=1;" parent="4s9ar1ghVEzyRIvkXxQm-11" vertex="1">
                    <mxGeometry x="40" y="30" width="120" height="60" as="geometry"/>
                </mxCell>
                <mxCell id="4s9ar1ghVEzyRIvkXxQm-15" value="Worker1" style="text;html=1;strokeColor=none;fillColor=none;align=center;verticalAlign=middle;whiteSpace=wrap;rounded=0;" parent="4s9ar1ghVEzyRIvkXxQm-10" vertex="1">
                    <mxGeometry x="70" y="210" width="60" height="30" as="geometry"/>
                </mxCell>
                <mxCell id="4s9ar1ghVEzyRIvkXxQm-16" value="Worker 2" style="text;html=1;strokeColor=none;fillColor=none;align=center;verticalAlign=middle;whiteSpace=wrap;rounded=0;" parent="1" vertex="1">
                    <mxGeometry x="720" y="580" width="60" height="30" as="geometry"/>
                </mxCell>
                <mxCell id="4s9ar1ghVEzyRIvkXxQm-17" style="edgeStyle=none;html=1;exitX=0;exitY=0.5;exitDx=0;exitDy=0;" parent="1" source="4s9ar1ghVEzyRIvkXxQm-14" target="4s9ar1ghVEzyRIvkXxQm-3" edge="1">
                    <mxGeometry relative="1" as="geometry"/>
                </mxCell>
                <mxCell id="4s9ar1ghVEzyRIvkXxQm-18" value="Uses" style="edgeLabel;html=1;align=center;verticalAlign=middle;resizable=0;points=[];" parent="4s9ar1ghVEzyRIvkXxQm-17" vertex="1" connectable="0">
                    <mxGeometry x="0.4346" y="-3" relative="1" as="geometry">
                        <mxPoint as="offset"/>
                    </mxGeometry>
                </mxCell>
                <mxCell id="nx2fn_OXeCvVRUsR5Q88-3" style="edgeStyle=none;html=1;entryX=0.5;entryY=1;entryDx=0;entryDy=0;entryPerimeter=0;" parent="1" source="nx2fn_OXeCvVRUsR5Q88-2" target="4s9ar1ghVEzyRIvkXxQm-3" edge="1">
                    <mxGeometry relative="1" as="geometry">
                        <mxPoint x="510" y="400" as="targetPoint"/>
                    </mxGeometry>
                </mxCell>
                <mxCell id="nx2fn_OXeCvVRUsR5Q88-4" value="Volume Created&lt;br style=&quot;border-color: var(--border-color);&quot;&gt;Using APIs provided by&lt;br style=&quot;border-color: var(--border-color);&quot;&gt;Cloud Vendor" style="edgeLabel;html=1;align=center;verticalAlign=middle;resizable=0;points=[];" parent="nx2fn_OXeCvVRUsR5Q88-3" vertex="1" connectable="0">
                    <mxGeometry x="0.2588" y="1" relative="1" as="geometry">
                        <mxPoint x="1" as="offset"/>
                    </mxGeometry>
                </mxCell>
                <mxCell id="nx2fn_OXeCvVRUsR5Q88-2" value="Cloud Vendor" style="rounded=1;whiteSpace=wrap;html=1;" parent="1" vertex="1">
                    <mxGeometry x="450" y="550" width="120" height="60" as="geometry"/>
                </mxCell>
            </root>
        </mxGraphModel>
    </diagram>
    <diagram id="gC9W0fmiJSoD0NEitbm0" name="Page-3">
        <mxGraphModel dx="1100" dy="580" grid="1" gridSize="10" guides="1" tooltips="1" connect="1" arrows="1" fold="1" page="1" pageScale="1" pageWidth="827" pageHeight="1169" math="0" shadow="0">
            <root>
                <mxCell id="0"/>
                <mxCell id="1" parent="0"/>
                <mxCell id="Bd13RpuCeIw4fBm6K82d-23" value="" style="edgeStyle=none;html=1;" parent="1" source="Bd13RpuCeIw4fBm6K82d-1" target="Bd13RpuCeIw4fBm6K82d-22" edge="1">
                    <mxGeometry relative="1" as="geometry"/>
                </mxCell>
                <mxCell id="Bd13RpuCeIw4fBm6K82d-1" value="storageClass" style="rounded=1;whiteSpace=wrap;html=1;" parent="1" vertex="1">
                    <mxGeometry x="340" y="190" width="120" height="60" as="geometry"/>
                </mxCell>
                <mxCell id="Bd13RpuCeIw4fBm6K82d-26" value="" style="edgeStyle=none;html=1;" parent="1" source="Bd13RpuCeIw4fBm6K82d-3" target="Bd13RpuCeIw4fBm6K82d-1" edge="1">
                    <mxGeometry relative="1" as="geometry"/>
                </mxCell>
                <mxCell id="Bd13RpuCeIw4fBm6K82d-27" value="Configures" style="edgeLabel;html=1;align=center;verticalAlign=middle;resizable=0;points=[];" parent="Bd13RpuCeIw4fBm6K82d-26" vertex="1" connectable="0">
                    <mxGeometry x="0.1" y="-4" relative="1" as="geometry">
                        <mxPoint as="offset"/>
                    </mxGeometry>
                </mxCell>
                <mxCell id="Bd13RpuCeIw4fBm6K82d-3" value="admin&lt;br&gt;" style="shape=umlActor;verticalLabelPosition=bottom;verticalAlign=top;html=1;outlineConnect=0;" parent="1" vertex="1">
                    <mxGeometry x="640" y="190" width="30" height="60" as="geometry"/>
                </mxCell>
                <mxCell id="Bd13RpuCeIw4fBm6K82d-10" value="Creates" style="edgeStyle=none;html=1;" parent="1" source="Bd13RpuCeIw4fBm6K82d-4" target="Bd13RpuCeIw4fBm6K82d-9" edge="1">
                    <mxGeometry relative="1" as="geometry"/>
                </mxCell>
                <mxCell id="Bd13RpuCeIw4fBm6K82d-18" value="" style="edgeStyle=none;html=1;" parent="1" source="Bd13RpuCeIw4fBm6K82d-4" target="Bd13RpuCeIw4fBm6K82d-17" edge="1">
                    <mxGeometry relative="1" as="geometry"/>
                </mxCell>
                <mxCell id="Bd13RpuCeIw4fBm6K82d-19" value="Creates" style="edgeLabel;html=1;align=center;verticalAlign=middle;resizable=0;points=[];" parent="Bd13RpuCeIw4fBm6K82d-18" vertex="1" connectable="0">
                    <mxGeometry x="0.1111" y="2" relative="1" as="geometry">
                        <mxPoint y="1" as="offset"/>
                    </mxGeometry>
                </mxCell>
                <mxCell id="Bd13RpuCeIw4fBm6K82d-4" value="User" style="shape=umlActor;verticalLabelPosition=bottom;verticalAlign=top;html=1;outlineConnect=0;" parent="1" vertex="1">
                    <mxGeometry x="156" y="500" width="30" height="60" as="geometry"/>
                </mxCell>
                <mxCell id="Bd13RpuCeIw4fBm6K82d-20" style="edgeStyle=none;html=1;exitX=1;exitY=0;exitDx=0;exitDy=0;entryX=0.25;entryY=1;entryDx=0;entryDy=0;" parent="1" source="Bd13RpuCeIw4fBm6K82d-9" target="Bd13RpuCeIw4fBm6K82d-1" edge="1">
                    <mxGeometry relative="1" as="geometry"/>
                </mxCell>
                <mxCell id="Bd13RpuCeIw4fBm6K82d-21" value="Uses storage class to provision&lt;br&gt;persistent Volume" style="edgeLabel;html=1;align=center;verticalAlign=middle;resizable=0;points=[];" parent="Bd13RpuCeIw4fBm6K82d-20" vertex="1" connectable="0">
                    <mxGeometry x="0.2284" y="-3" relative="1" as="geometry">
                        <mxPoint as="offset"/>
                    </mxGeometry>
                </mxCell>
                <mxCell id="Bd13RpuCeIw4fBm6K82d-9" value="PVC" style="whiteSpace=wrap;html=1;verticalAlign=top;" parent="1" vertex="1">
                    <mxGeometry x="111" y="360" width="120" height="60" as="geometry"/>
                </mxCell>
                <mxCell id="Bd13RpuCeIw4fBm6K82d-17" value="Pod" style="whiteSpace=wrap;html=1;verticalAlign=top;" parent="1" vertex="1">
                    <mxGeometry x="340" y="500" width="120" height="60" as="geometry"/>
                </mxCell>
                <mxCell id="Bd13RpuCeIw4fBm6K82d-24" value="" style="edgeStyle=none;html=1;" parent="1" source="Bd13RpuCeIw4fBm6K82d-22" target="Bd13RpuCeIw4fBm6K82d-17" edge="1">
                    <mxGeometry relative="1" as="geometry"/>
                </mxCell>
                <mxCell id="Bd13RpuCeIw4fBm6K82d-25" value="Mounted By" style="edgeLabel;html=1;align=center;verticalAlign=middle;resizable=0;points=[];" parent="Bd13RpuCeIw4fBm6K82d-24" vertex="1" connectable="0">
                    <mxGeometry x="-0.1273" y="1" relative="1" as="geometry">
                        <mxPoint as="offset"/>
                    </mxGeometry>
                </mxCell>
                <mxCell id="Bd13RpuCeIw4fBm6K82d-22" value="Persistent Volume" style="whiteSpace=wrap;html=1;rounded=1;" parent="1" vertex="1">
                    <mxGeometry x="340" y="330" width="120" height="60" as="geometry"/>
                </mxCell>
            </root>
        </mxGraphModel>
    </diagram>
</mxfile>